<?xml version="1.0" standalone="no"?>
<!DOCTYPE svg PUBLIC "-//W3C//DTD SVG 20010904//EN"
 "http://www.w3.org/TR/2001/REC-SVG-20010904/DTD/svg10.dtd">
<svg version="1.0" xmlns="http://www.w3.org/2000/svg"
 width="300.000000pt" height="136.000000pt" viewBox="0 0 300.000000 136.000000"
 preserveAspectRatio="xMidYMid meet">
<metadata>
Created by potrace 1.10, written by Peter Selinger 2001-2011
</metadata>
<g transform="translate(0.000000,136.000000) scale(0.100000,-0.100000)"
fill="#000000" stroke="none">
<path d="M2995 680 c0 -377 1 -531 2 -342 2 188 2 496 0 685 -1 188 -2 34 -2
-343z"/>
<path d="M1251 1028 c-8 -64 -9 -94 -2 -96 6 -2 11 -8 11 -13 0 -4 -6 -6 -14
-3 -8 3 -17 1 -21 -5 -3 -6 -16 -11 -28 -11 -12 0 -45 -6 -74 -12 -63 -15 -64
-20 -26 -115 31 -77 31 -78 38 -71 3 2 -6 33 -20 68 -14 35 -25 69 -25 76 0 7
14 17 31 23 40 14 40 14 36 -1 -2 -13 12 -13 79 -3 23 4 36 0 50 -16 l19 -21
-35 6 c-19 4 -42 10 -52 12 -9 3 -19 1 -22 -4 -3 -5 12 -12 34 -16 35 -5 59
-21 48 -31 -2 -3 -19 0 -38 5 -19 5 -36 8 -38 6 -7 -8 56 -36 80 -36 13 0 43
-19 68 -41 36 -32 40 -37 17 -27 -19 8 -31 8 -38 1 -8 -8 9 -14 56 -22 37 -7
69 -10 71 -8 2 2 -26 25 -64 50 -112 79 -107 72 -85 94 18 18 20 18 70 -4 46
-21 52 -28 62 -68 15 -60 34 -70 25 -13 -4 24 -11 51 -15 60 -5 9 -9 27 -9 39
0 19 2 20 17 8 15 -13 16 -11 9 16 -4 17 -33 56 -67 90 l-61 60 5 -65 c2 -36
8 -74 12 -85 6 -16 5 -18 -5 -8 -7 6 -19 49 -27 95 -23 133 -25 138 -36 138
-6 0 -8 3 -4 6 3 3 39 -15 81 -40 42 -25 79 -46 83 -46 9 0 33 -48 33 -64 0
-6 -19 8 -42 30 -45 43 -101 84 -114 84 -4 0 32 -36 80 -81 l86 -81 1 -76 1
-77 8 53 c4 29 11 68 14 87 7 38 52 98 67 89 5 -3 9 9 9 27 0 28 -2 30 -16 18
-9 -7 -30 -38 -48 -69 -33 -58 -52 -49 -22 12 19 38 19 38 2 38 -20 0 -48 29
-40 42 4 5 15 1 28 -11 27 -26 32 -26 58 -1 28 26 37 25 48 -6 16 -40 12 -49
-27 -75 -37 -24 -38 -26 -44 -101 -4 -45 -13 -88 -23 -102 -9 -14 -12 -27 -7
-30 22 -14 51 69 51 149 0 45 3 52 33 72 17 13 59 45 92 72 33 27 62 50 65 50
3 1 3 -36 2 -81 l-4 -83 34 -1 c18 -1 64 -5 101 -9 l68 -8 -21 -22 c-12 -12
-20 -26 -19 -31 3 -19 -1 -34 -11 -34 -5 0 -31 -23 -57 -51 -26 -28 -60 -57
-76 -65 -25 -14 -31 -13 -61 5 -18 12 -42 21 -52 21 -14 0 -11 7 17 36 47 50
119 83 172 78 l42 -3 -45 10 c-25 5 -60 7 -79 3 -31 -5 -33 -4 -22 10 10 12
25 14 71 9 75 -7 116 7 50 18 -25 4 -62 8 -83 8 -34 1 -39 -3 -55 -36 -22 -49
-44 -67 -113 -92 -31 -12 -67 -31 -80 -42 l-24 -22 45 6 c25 3 54 8 65 12 13
4 28 -1 40 -13 12 -10 34 -22 49 -26 19 -5 26 -10 19 -17 -6 -6 -25 -6 -54 1
-92 24 -97 23 -56 -3 22 -14 54 -40 73 -58 37 -36 55 -33 34 6 -16 30 -7 43
16 24 18 -14 98 -169 88 -169 -8 0 -78 18 -124 32 -19 6 -44 18 -54 27 -18 15
-19 15 -11 -4 5 -11 11 -47 14 -80 4 -37 9 -55 14 -47 5 7 6 31 2 54 -6 32 -4
39 6 36 10 -3 15 -32 19 -99 4 -73 7 -86 13 -60 4 18 7 49 7 67 l0 34 75 -7
c52 -4 75 -3 75 5 0 7 -29 12 -77 14 -54 2 -78 7 -81 17 -4 11 5 12 44 6 75
-12 88 -11 92 6 2 12 -17 65 -46 122 -2 4 6 7 18 7 12 0 44 12 71 27 57 31 75
26 27 -8 -18 -13 -37 -29 -41 -37 -7 -11 -11 -11 -24 0 -14 11 -15 11 -10 -2
6 -16 17 -53 38 -130 6 -25 14 -39 16 -32 4 11 -6 67 -23 124 -3 10 11 29 41
53 59 49 69 38 17 -17 -23 -23 -39 -45 -36 -47 3 -3 27 17 54 44 46 47 47 51
32 69 -9 10 -35 27 -57 39 -34 17 -37 21 -21 27 13 4 16 9 8 14 -8 5 0 30 25
84 51 112 51 107 1 121 -99 28 -112 30 -119 19 -13 -20 -30 1 -19 23 12 22 10
189 -2 189 -5 0 -8 -7 -8 -15 0 -8 -8 -14 -17 -12 -26 3 -113 -36 -113 -51 0
-8 16 -4 49 12 61 32 86 26 89 -20 2 -20 -2 -34 -9 -34 -6 0 -9 9 -6 20 3 10
-1 27 -8 37 -12 16 -17 14 -69 -25 l-56 -42 -6 25 c-3 14 -10 25 -15 25 -5 0
-9 5 -9 11 0 6 7 9 15 5 17 -6 19 2 6 23 -7 11 -17 8 -51 -19 -40 -32 -44 -33
-78 -20 -30 11 -37 10 -47 -3 -9 -12 -14 -13 -28 -2 -23 17 -22 28 3 20 26 -8
26 6 0 22 -16 11 -21 10 -28 -4 -8 -14 -16 -12 -64 16 -31 17 -58 31 -60 31
-3 0 -11 -42 -17 -92z m26 10 c-3 -7 -5 -2 -5 12 0 14 2 19 5 13 2 -7 2 -19 0
-25z m32 -108 c11 -81 8 -94 -13 -65 -12 17 -13 44 -6 144 1 20 10 -17 19 -79z
m186 50 c3 -5 1 -10 -4 -10 -6 0 -11 5 -11 10 0 6 2 10 4 10 3 0 8 -4 11 -10z
m-111 -70 c8 -26 20 -58 26 -70 14 -26 6 -37 -15 -20 -14 12 -25 43 -40 119
-11 51 12 29 29 -29z m-114 -20 c0 -5 -15 -10 -32 -9 -28 0 -30 2 -13 9 28 12
45 12 45 0z m154 -6 c8 -21 8 -24 -3 -24 -5 0 -11 9 -14 20 -6 24 8 27 17 4z
m457 -152 c-22 -32 -51 -58 -51 -48 0 13 52 76 62 76 5 0 0 -13 -11 -28z m-20
-84 c42 -23 50 -38 21 -38 -10 0 -28 -7 -40 -16 -25 -17 -73 -15 -80 4 -2 8 8
12 32 12 20 0 36 5 36 10 0 15 -77 12 -83 -2 -3 -8 -6 -6 -6 5 -1 12 9 19 29
24 17 3 30 9 30 14 0 15 20 10 61 -13z"/>
<path d="M1701 972 c-6 -12 -11 -27 -11 -35 0 -37 -54 -107 -82 -107 -13 0 -9
58 4 66 8 5 9 0 6 -14 -4 -12 -2 -22 3 -22 5 0 12 12 15 28 4 15 12 34 19 42
27 34 27 43 -1 22 -65 -48 -71 -57 -78 -105 -6 -46 -5 -48 17 -42 12 4 37 16
55 27 36 22 38 19 16 -24 -11 -21 -18 -27 -24 -18 -5 9 -13 6 -28 -10 -12 -13
-27 -20 -36 -17 -10 4 -16 1 -16 -8 0 -14 21 -12 45 5 6 4 22 10 37 14 36 8
47 31 64 129 15 83 13 103 -5 69z"/>
<path d="M1978 874 c-5 -4 -8 -13 -8 -20 0 -7 -14 -43 -31 -79 -18 -36 -29
-68 -26 -72 9 -9 79 143 75 162 -1 9 -6 13 -10 9z"/>
<path d="M1130 847 c-1 -34 91 -147 120 -147 6 0 10 -4 10 -10 0 -5 -15 -10
-32 -10 -36 0 -99 -39 -65 -40 29 0 107 22 113 32 3 5 -13 30 -35 56 -23 26
-57 65 -76 87 -19 22 -35 36 -35 32z"/>
<path d="M1355 774 c17 -14 39 -30 49 -36 16 -9 18 -8 13 7 -4 9 -7 18 -7 21
0 4 -69 34 -79 34 -3 -1 8 -12 24 -26z"/>
<path d="M1790 764 c-25 -7 -57 -16 -72 -19 -47 -9 -31 -23 25 -22 43 2 59 7
83 29 32 31 29 32 -36 12z"/>
<path d="M1265 730 c16 -16 31 -28 33 -25 7 7 -39 55 -52 55 -5 0 3 -13 19
-30z"/>
<path d="M1151 734 c0 -11 3 -14 6 -6 3 7 2 16 -1 19 -3 4 -6 -2 -5 -13z"/>
<path d="M1168 712 c-7 -17 -93 -77 -108 -74 -8 1 5 -16 30 -38 25 -22 48 -40
53 -40 14 0 7 -23 -17 -54 -27 -36 -56 -90 -56 -105 0 -6 34 -9 88 -8 l87 2
-3 -60 c-2 -33 -6 -68 -8 -77 -7 -25 8 -22 38 5 14 13 29 22 34 20 14 -5 118
54 107 60 -5 3 -30 -8 -57 -24 -26 -17 -50 -29 -51 -27 -4 4 150 129 162 131
4 1 16 -14 25 -33 10 -19 31 -47 48 -61 16 -15 30 -31 30 -35 0 -10 -81 -56
-88 -50 -2 3 7 20 20 38 24 32 24 34 6 51 -17 16 -18 16 -18 -16 0 -49 -13
-54 -31 -10 -14 34 -14 41 -1 61 18 28 10 39 -13 16 -10 -10 -15 -27 -12 -41
2 -12 0 -23 -5 -23 -5 0 2 -15 16 -33 15 -19 26 -39 26 -45 0 -18 20 -15 66
10 l41 22 37 -22 c36 -21 82 -30 72 -14 -3 5 -23 14 -46 22 -28 9 -51 28 -79
64 -50 67 -65 96 -54 107 9 9 73 -60 73 -79 0 -13 80 -85 87 -78 3 3 -13 26
-36 51 -22 24 -41 48 -41 53 0 4 -13 22 -30 40 -16 18 -30 38 -30 44 0 5 -7 7
-16 4 -13 -5 -15 2 -9 52 12 107 14 113 37 101 34 -18 108 -90 108 -105 0 -7
13 -20 30 -29 46 -24 57 -18 19 11 -30 23 -31 25 -9 19 14 -4 37 -15 52 -26
40 -28 46 -23 13 11 -16 17 -39 30 -51 30 -12 0 -45 19 -73 43 -73 62 -143 96
-167 82 -63 -38 -75 -47 -71 -52 3 -2 15 0 26 6 20 11 21 10 16 -36 -2 -26
-10 -50 -18 -55 -19 -10 -44 -98 -28 -98 13 0 33 28 23 32 -6 2 -5 13 1 28 9
23 10 23 15 5 2 -11 8 -25 13 -31 7 -8 -8 -26 -43 -55 -29 -23 -69 -58 -89
-76 l-36 -34 -7 31 c-8 40 4 140 16 140 5 0 6 5 3 10 -9 15 4 50 20 50 8 0 16
3 18 8 3 4 -20 6 -51 4 -55 -2 -83 -17 -103 -53 -8 -15 -2 -16 47 -12 54 5 55
4 43 -16 -11 -17 -20 -19 -54 -14 -26 3 -54 -1 -78 -10 -20 -9 -37 -14 -37
-11 0 3 17 28 38 57 21 29 47 67 57 85 11 17 26 32 35 32 19 1 96 68 87 77 -4
3 -17 -3 -30 -15 -14 -13 -43 -25 -70 -28 -26 -4 -50 -11 -54 -17 -3 -6 -1 -7
5 -3 19 11 35 -3 22 -19 -10 -12 -18 -10 -51 12 -21 14 -39 27 -39 29 0 1 27
20 60 42 43 29 55 42 44 46 -20 8 -22 8 -26 -2z m322 -167 c0 -103 -5 -120
-30 -90 -18 22 0 195 21 195 5 0 9 -47 9 -105z m-225 -44 c-15 -14 -75 -24
-75 -13 0 13 18 20 55 21 17 1 25 -3 20 -8z"/>
<path d="M1744 705 c-16 -12 -16 -14 -3 -15 9 0 22 7 29 15 16 19 0 19 -26 0z"/>
<path d="M1084 678 l-19 -23 23 19 c21 18 27 26 19 26 -2 0 -12 -10 -23 -22z"/>
<path d="M1930 678 c0 -17 60 -71 69 -62 3 3 -12 21 -32 42 -26 26 -37 32 -37
20z"/>
<path d="M1334 628 c-26 -5 -53 -21 -74 -43 -46 -48 -31 -56 21 -11 24 20 47
36 53 37 21 1 48 8 53 12 10 11 -14 13 -53 5z"/>
<path d="M1313 577 c-42 -28 -43 -43 -2 -20 79 45 76 43 54 42 -11 0 -35 -10
-52 -22z"/>
<path d="M1520 592 c0 -12 19 -26 26 -19 2 2 -2 10 -11 17 -9 8 -15 8 -15 2z"/>
<path d="M1075 570 c3 -5 8 -10 11 -10 2 0 4 5 4 10 0 6 -5 10 -11 10 -5 0 -7
-4 -4 -10z"/>
<path d="M1375 538 c-2 -7 -13 -39 -24 -71 -12 -32 -21 -67 -21 -78 0 -18 2
-19 15 -5 8 8 15 25 15 38 1 32 27 102 40 106 16 6 12 22 -5 22 -9 0 -17 -6
-20 -12z"/>
<path d="M1546 508 c3 -18 10 -42 15 -53 8 -19 8 -19 8 1 1 36 -11 84 -21 84
-6 0 -7 -14 -2 -32z"/>
<path d="M1329 513 c-28 -34 -63 -183 -40 -169 6 4 11 13 11 20 0 24 33 121
47 137 7 8 13 19 13 22 0 13 -17 7 -31 -10z"/>
<path d="M1583 500 c3 -14 9 -44 13 -68 4 -23 11 -45 17 -49 17 -10 -2 110
-20 127 -14 14 -15 13 -10 -10z"/>
<path d="M1782 346 c45 -11 74 -26 50 -26 -7 0 -12 -5 -12 -11 0 -5 13 -2 30
8 52 30 39 43 -42 42 l-73 -1 47 -12z"/>
<path d="M1308 257 c-26 -12 -48 -25 -48 -29 0 -11 88 22 101 38 15 19 4 17
-53 -9z"/>
</g>
</svg>
